<svg xmlns="http://www.w3.org/2000/svg" viewBox="0 0 800 520" fill="none">
  <rect width="800" height="520" rx="16" fill="#F8F6F1"/>
  <!-- Browser top bar -->
  <rect x="0" y="0" width="800" height="44" rx="16" fill="#F0ECE6"/>
  <rect x="0" y="20" width="800" height="24" fill="#F0ECE6"/>
  <circle cx="20" cy="22" r="5" fill="#EF4444"/>
  <circle cx="36" cy="22" r="5" fill="#F59E0B"/>
  <circle cx="52" cy="22" r="5" fill="#22C55E"/>
  <rect x="260" y="16" width="180" height="12" rx="6" fill="#EBE8E0"/>
  <!-- Hero section -->
  <rect x="40" y="72" width="720" height="200" rx="16" fill="url(#g1)"/>
  <rect x="60" y="100" width="200" height="12" rx="6" fill="white" opacity="0.4"/>
  <rect x="60" y="124" width="320" height="16" rx="8" fill="white" opacity="0.7"/>
  <rect x="60" y="150" width="280" height="12" rx="6" fill="white" opacity="0.4"/>
  <circle cx="370" cy="170" r="40" fill="white" opacity="0.15"/>
  <circle cx="370" cy="170" r="25" fill="white" opacity="0.2"/>
  <!-- Content grid -->
  <rect x="40" y="296" width="228" height="140" rx="12" fill="white" stroke="#EBE8E0" stroke-width="1"/>
  <rect x="56" y="312" width="80" height="10" rx="5" fill="#EBE8E0"/>
  <rect x="56" y="332" width="160" height="8" rx="4" fill="#F0ECE6"/>
  <rect x="56" y="348" width="140" height="8" rx="4" fill="#F0ECE6"/>
  <rect x="286" y="296" width="228" height="140" rx="12" fill="white" stroke="#EBE8E0" stroke-width="1"/>
  <rect x="302" y="312" width="80" height="10" rx="5" fill="#EBE8E0"/>
  <rect x="302" y="332" width="160" height="8" rx="4" fill="#F0ECE6"/>
  <rect x="302" y="348" width="140" height="8" rx="4" fill="#F0ECE6"/>
  <rect x="532" y="296" width="228" height="140" rx="12" fill="white" stroke="#EBE8E0" stroke-width="1"/>
  <rect x="548" y="312" width="80" height="10" rx="5" fill="#EBE8E0"/>
  <rect x="548" y="332" width="160" height="8" rx="4" fill="#F0ECE6"/>
  <rect x="548" y="348" width="140" height="8" rx="4" fill="#F0ECE6"/>
  <defs>
    <linearGradient id="g1" x1="0" y1="0" x2="1" y2="1">
      <stop offset="0%" stop-color="#0D9488"/>
      <stop offset="100%" stop-color="#115E59"/>
    </linearGradient>
  </defs>
</svg>