<svg xmlns="http://www.w3.org/2000/svg" viewBox="0 0 800 520" fill="none">
  <rect width="800" height="520" rx="16" fill="#F8F6F1"/>
  <rect x="0" y="0" width="800" height="44" rx="16" fill="#F0ECE6"/>
  <rect x="0" y="20" width="800" height="24" fill="#F0ECE6"/>
  <circle cx="20" cy="22" r="5" fill="#EF4444"/>
  <circle cx="36" cy="22" r="5" fill="#F59E0B"/>
  <circle cx="52" cy="22" r="5" fill="#22C55E"/>
  <rect x="260" y="16" width="180" height="12" rx="6" fill="#EBE8E0"/>
  <!-- Phone mockup left -->
  <rect x="160" y="70" width="180" height="350" rx="24" fill="white" stroke="#EBE8E0" stroke-width="2"/>
  <rect x="230" y="82" width="40" height="4" rx="2" fill="#EBE8E0"/>
  <rect x="178" y="100" width="144" height="200" rx="12" fill="url(#g4)"/>
  <rect x="190" y="114" width="120" height="8" rx="4" fill="white" opacity="0.3"/>
  <rect x="190" y="130" width="80" height="6" rx="3" fill="white" opacity="0.2"/>
  <rect x="190" y="160" width="50" height="50" rx="12" fill="white" opacity="0.15"/>
  <rect x="190" y="222" width="100" height="8" rx="4" fill="white" opacity="0.15"/>
  <rect x="190" y="238" width="60" height="6" rx="3" fill="white" opacity="0.1"/>
  <rect x="190" y="254" width="80" height="6" rx="3" fill="white" opacity="0.1"/>
  <circle cx="250" cy="330" r="20" fill="white" opacity="0.15"/>
  <rect x="200" y="360" width="100" height="40" rx="20" fill="white" opacity="0.1"/>
  <!-- Phone mockup right -->
  <rect x="460" y="70" width="180" height="350" rx="24" fill="white" stroke="#EBE8E0" stroke-width="2"/>
  <rect x="530" y="82" width="40" height="4" rx="2" fill="#EBE8E0"/>
  <rect x="478" y="100" width="144" height="200" rx="12" fill="url(#g5)"/>
  <text x="550" y="160" font-family="system-ui" font-size="36" fill="white" text-anchor="middle" opacity="0.5">A</text>
  <text x="550" y="210" font-family="system-ui" font-size="24" fill="white" text-anchor="middle" opacity="0.3">B</text>
  <text x="550" y="250" font-family="system-ui" font-size="20" fill="white" text-anchor="middle" opacity="0.25">C</text>
  <rect x="500" y="360" width="100" height="40" rx="20" fill="white" opacity="0.1"/>
  <defs>
    <linearGradient id="g4" x1="0" y1="0" x2="0" y2="1">
      <stop offset="0%" stop-color="#8B5CF6"/>
      <stop offset="100%" stop-color="#6D28D9"/>
    </linearGradient>
    <linearGradient id="g5" x1="0" y1="0" x2="0" y2="1">
      <stop offset="0%" stop-color="#F59E0B"/>
      <stop offset="100%" stop-color="#D97706"/>
    </linearGradient>
  </defs>
</svg>