<svg xmlns="http://www.w3.org/2000/svg" viewBox="0 0 800 520" fill="none">
  <rect width="800" height="520" rx="16" fill="#F8F6F1"/>
  <rect x="0" y="0" width="800" height="44" rx="16" fill="#F0ECE6"/>
  <rect x="0" y="20" width="800" height="24" fill="#F0ECE6"/>
  <circle cx="20" cy="22" r="5" fill="#EF4444"/>
  <circle cx="36" cy="22" r="5" fill="#F59E0B"/>
  <circle cx="52" cy="22" r="5" fill="#22C55E"/>
  <rect x="260" y="16" width="180" height="12" rx="6" fill="#EBE8E0"/>
  <!-- Split view: left code, right visualization -->
  <rect x="40" y="66" width="350" height="414" rx="12" fill="#1E293B"/>
  <rect x="56" y="82" width="40" height="8" rx="4" fill="#EF4444" opacity="0.5"/>
  <rect x="104" y="82" width="60" height="8" rx="4" fill="#F59E0B" opacity="0.5"/>
  <rect x="172" y="82" width="80" height="8" rx="4" fill="#22C55E" opacity="0.5"/>
  <rect x="56" y="104" width="318" height="6" rx="3" fill="white" opacity="0.08"/>
  <rect x="56" y="116" width="280" height="6" rx="3" fill="white" opacity="0.08"/>
  <rect x="56" y="128" width="300" height="6" rx="3" fill="white" opacity="0.08"/>
  <rect x="56" y="140" width="250" height="6" rx="3" fill="white" opacity="0.08"/>
  <rect x="56" y="160" width="318" height="6" rx="3" fill="#22C55E" opacity="0.2"/>
  <rect x="56" y="172" width="290" height="6" rx="3" fill="white" opacity="0.08"/>
  <rect x="56" y="184" width="310" height="6" rx="3" fill="white" opacity="0.08"/>
  <rect x="56" y="204" width="318" height="6" rx="3" fill="#3B82F6" opacity="0.2"/>
  <rect x="56" y="216" width="260" height="6" rx="3" fill="white" opacity="0.08"/>
  <rect x="56" y="228" width="240" height="6" rx="3" fill="white" opacity="0.08"/>
  <!-- Right side visualization -->
  <rect x="410" y="66" width="350" height="280" rx="12" fill="url(#g3)"/>
  <circle cx="585" cy="200" r="80" fill="white" opacity="0.08"/>
  <circle cx="585" cy="200" r="50" fill="white" opacity="0.12"/>
  <circle cx="585" cy="200" r="25" fill="white" opacity="0.15"/>
  <circle cx="500" cy="150" r="12" fill="#22C55E" opacity="0.4"/>
  <circle cx="650" cy="160" r="10" fill="#3B82F6" opacity="0.4"/>
  <circle cx="680" cy="240" r="8" fill="#F59E0B" opacity="0.4"/>
  <circle cx="530" cy="260" r="9" fill="#EF4444" opacity="0.4"/>
  <circle cx="620" cy="270" r="11" fill="#8B5CF6" opacity="0.4"/>
  <rect x="410" y="366" width="350" height="114" rx="12" fill="white" stroke="#EBE8E0" stroke-width="1"/>
  <rect x="430" y="384" width="120" height="10" rx="5" fill="#EBE8E0"/>
  <rect x="430" y="404" width="200" height="8" rx="4" fill="#F0ECE6"/>
  <rect x="430" y="420" width="180" height="8" rx="4" fill="#F0ECE6"/>
  <defs>
    <linearGradient id="g3" x1="0" y1="0" x2="1" y2="1">
      <stop offset="0%" stop-color="#0C0A09"/>
      <stop offset="50%" stop-color="#1C1917"/>
      <stop offset="100%" stop-color="#292524"/>
    </linearGradient>
  </defs>
</svg>