<?xml version="1.0" encoding="UTF-8" ?>
<!DOCTYPE svg PUBLIC "-//W3C//DTD SVG 1.1//EN" "http://www.w3.org/Graphics/SVG/1.1/DTD/svg11.dtd">
<svg width="1626pt" height="500pt" viewBox="0 0 1626 500" version="1.1" xmlns="http://www.w3.org/2000/svg">
<g id="#qtu-logoname">
<path fill="#000000" opacity="1.00" d=" M 268.49 0.00 L 314.51 0.00 C 347.85 2.86 381.38 8.03 412.64 20.42 C 441.05 31.22 467.77 48.21 486.60 72.39 C 508.61 101.25 514.52 140.43 505.24 175.18 C 497.65 207.50 478.95 236.38 455.21 259.21 C 417.11 295.62 367.97 317.97 318.15 333.34 C 301.80 298.89 284.34 264.93 268.79 230.11 C 295.71 239.19 322.76 247.89 349.67 256.98 C 373.03 230.42 390.71 197.68 394.01 162.01 C 399.60 121.18 382.02 76.75 346.97 54.05 C 331.20 42.78 312.12 37.04 293.03 34.80 C 262.19 31.40 231.00 39.47 203.78 53.81 C 163.15 75.89 130.62 113.53 117.21 158.04 C 109.47 184.68 108.21 213.95 117.68 240.32 C 124.15 256.75 133.53 272.35 146.82 284.16 C 160.83 296.58 178.00 305.34 196.18 309.75 C 221.78 315.46 248.71 313.56 273.73 305.95 C 294.85 353.00 316.09 400.01 336.85 447.22 C 291.49 415.45 245.71 384.28 200.13 352.83 C 193.80 348.43 187.22 343.02 179.07 342.95 C 141.49 339.17 103.88 329.30 71.31 309.69 C 45.04 294.06 22.38 271.13 10.17 242.83 C 5.27 231.19 2.11 218.87 0.00 206.44 L 0.00 180.59 C 3.24 160.09 9.16 139.79 19.82 121.86 C 37.60 90.88 65.69 67.18 96.02 49.04 C 148.40 18.79 208.57 4.63 268.49 0.00 Z" />
<path fill="#000000" opacity="1.00" d=" M 1099.72 131.60 C 1122.44 130.08 1145.25 131.39 1168.02 131.02 C 1165.88 144.36 1163.04 157.57 1160.79 170.88 C 1167.62 170.96 1174.46 171.04 1181.31 171.13 C 1179.15 185.63 1176.41 200.04 1173.53 214.42 C 1172.71 217.57 1172.43 221.01 1170.77 223.89 C 1164.14 224.10 1157.54 224.02 1150.96 223.39 C 1145.22 254.23 1139.54 285.09 1133.75 315.93 C 1111.06 316.06 1088.38 316.05 1065.70 315.96 C 1070.73 285.03 1077.07 254.33 1082.20 223.42 C 1076.21 223.63 1070.22 223.76 1064.26 223.75 C 1067.56 206.23 1071.03 188.75 1074.27 171.22 C 1080.31 171.08 1086.41 170.96 1092.48 170.71 C 1094.63 157.63 1096.50 144.47 1099.72 131.60 Z" />
<path fill="#000000" opacity="1.00" d=" M 747.66 167.66 C 758.78 166.59 771.14 165.53 780.91 172.13 C 789.25 176.15 794.55 183.90 799.71 191.23 C 800.55 184.59 801.35 177.95 802.40 171.33 C 824.62 170.69 846.86 171.04 869.09 171.05 C 860.02 219.34 851.30 267.71 842.00 315.96 C 820.61 316.03 799.23 316.06 777.85 315.95 C 779.29 309.95 780.94 304.00 782.24 297.97 C 775.17 305.73 767.59 313.67 757.75 317.83 C 740.90 324.37 720.27 321.57 706.76 309.24 C 698.80 302.68 693.57 293.48 690.06 283.92 C 679.24 249.01 690.50 208.90 716.79 183.79 C 725.61 176.15 735.99 169.66 747.66 167.66 M 768.40 226.39 C 755.21 229.93 752.47 246.54 756.19 257.78 C 761.60 267.41 775.31 266.09 782.65 259.66 C 789.24 252.97 790.93 242.25 787.38 233.64 C 784.01 226.89 775.41 224.37 768.40 226.39 Z" />
<path fill="#000000" opacity="1.00" d=" M 995.60 167.65 C 1003.99 166.60 1012.83 165.95 1020.89 169.19 C 1033.07 173.17 1042.60 184.00 1045.50 196.42 C 1047.90 207.04 1047.25 218.14 1045.81 228.86 C 1040.89 257.96 1035.25 286.92 1030.05 315.97 C 1006.99 316.03 983.94 316.05 960.90 315.97 C 964.16 299.05 967.42 282.14 970.29 265.15 C 972.51 252.32 976.23 239.54 975.59 226.40 C 974.24 221.25 967.73 218.67 963.05 221.00 C 954.37 224.92 951.55 234.98 949.53 243.42 C 945.13 267.49 940.35 291.49 936.54 315.66 C 913.63 316.32 890.73 315.94 867.83 315.97 C 876.68 267.62 885.26 219.21 895.04 171.04 C 916.40 170.96 937.76 170.94 959.13 171.04 C 957.78 177.72 956.39 184.39 955.04 191.07 C 966.85 180.95 979.65 169.99 995.60 167.65 Z" />
<path fill="#000000" opacity="1.00" d=" M 1475.59 169.54 C 1488.95 165.44 1505.21 165.03 1516.51 174.46 C 1522.86 179.82 1526.58 187.43 1530.25 194.71 C 1543.48 175.49 1567.24 163.10 1590.80 167.43 C 1608.79 168.52 1622.73 184.38 1626.00 201.38 L 1626.00 223.38 C 1620.03 254.19 1614.65 285.11 1608.76 315.93 C 1585.80 316.08 1562.85 316.07 1539.90 315.93 C 1543.51 297.83 1546.78 279.66 1550.65 261.61 C 1553.07 249.48 1556.33 237.11 1554.38 224.66 C 1553.03 219.70 1546.30 220.40 1542.67 221.66 C 1536.10 225.25 1533.50 232.95 1531.73 239.81 C 1526.19 264.97 1522.18 290.44 1517.52 315.77 C 1494.35 316.24 1471.18 316.02 1448.03 315.95 C 1451.58 298.80 1454.96 281.61 1458.42 264.44 C 1460.54 252.19 1464.33 240.02 1463.53 227.45 C 1463.18 219.31 1451.38 218.80 1447.20 224.21 C 1441.04 231.91 1439.02 241.86 1437.31 251.32 C 1433.68 272.89 1429.07 294.30 1425.78 315.94 C 1402.81 316.08 1379.84 316.07 1356.89 315.93 C 1366.43 267.72 1375.07 219.35 1384.25 171.07 C 1405.56 170.91 1426.88 170.93 1448.21 171.08 C 1446.99 177.88 1445.69 184.67 1444.40 191.46 C 1453.93 183.05 1463.20 173.58 1475.59 169.54 Z" />
<path fill="#000000" opacity="1.00" d=" M 519.72 171.61 C 542.18 170.04 564.74 171.40 587.25 171.04 C 584.01 194.73 578.92 218.11 574.68 241.62 C 573.98 247.62 572.39 254.86 577.32 259.65 C 581.72 262.55 587.97 262.21 592.22 259.20 C 598.87 250.97 599.61 239.92 602.03 230.01 C 605.44 210.31 608.83 190.60 613.01 171.04 C 635.04 170.95 657.06 170.95 679.09 171.05 C 675.88 192.01 671.35 212.74 667.70 233.63 C 665.03 248.80 661.19 263.87 654.96 278.00 C 648.23 292.76 637.52 306.87 622.09 313.14 C 604.88 320.90 585.58 321.75 567.03 320.91 C 550.15 319.25 532.83 313.64 520.61 301.39 C 510.90 291.86 505.67 278.44 505.17 264.96 C 504.08 247.80 508.80 231.13 511.36 214.32 C 514.09 200.08 516.26 185.70 519.72 171.61 Z" />
<path fill="#000000" opacity="1.00" d=" M 1198.28 171.08 C 1220.91 170.94 1243.54 170.96 1266.18 171.04 C 1262.23 193.94 1258.16 216.82 1253.64 239.62 C 1252.96 245.78 1250.72 253.51 1255.24 258.76 C 1261.47 264.36 1272.73 261.08 1274.93 252.92 C 1282.93 226.38 1284.99 198.48 1291.72 171.62 C 1313.65 170.13 1335.70 171.11 1357.68 171.35 C 1354.16 193.47 1349.52 215.39 1345.57 237.44 C 1343.19 251.58 1338.92 265.35 1333.49 278.60 C 1327.43 290.97 1319.27 303.11 1306.91 309.87 C 1287.89 321.31 1264.64 321.91 1243.16 320.70 C 1225.96 318.85 1208.83 311.91 1196.84 299.17 C 1184.64 284.80 1181.46 264.73 1184.49 246.57 C 1188.24 221.26 1193.45 196.20 1198.28 171.08 Z" />
<path fill="#000000" opacity="1.00" d=" M 1245.13 389.09 C 1263.75 384.46 1284.80 388.22 1299.63 400.77 C 1294.62 409.53 1289.53 418.25 1284.72 427.13 C 1276.61 421.73 1267.82 413.15 1257.30 417.39 C 1255.23 422.99 1260.70 425.50 1264.60 427.37 C 1272.48 430.66 1280.35 434.46 1286.60 440.40 C 1295.82 450.98 1295.46 467.01 1288.93 478.87 C 1281.72 490.53 1268.81 497.59 1255.57 500.00 L 1239.49 500.00 C 1224.59 497.48 1211.23 490.11 1199.48 480.88 C 1205.45 471.20 1211.74 461.73 1218.08 452.29 C 1225.82 459.76 1234.63 468.15 1246.03 468.62 C 1249.90 469.03 1252.93 466.24 1255.51 463.76 C 1246.45 458.16 1236.09 454.88 1227.51 448.49 C 1218.39 441.63 1214.07 429.13 1217.03 418.10 C 1218.85 403.45 1231.81 393.22 1245.13 389.09 Z" />
<path fill="#000000" opacity="1.00" d=" M 523.57 389.23 C 536.80 388.86 550.04 388.98 563.29 389.02 C 560.73 406.99 556.80 424.72 553.32 442.52 C 551.98 448.68 551.67 455.09 552.64 461.33 C 554.19 466.59 561.68 466.04 565.29 463.27 C 569.12 458.49 569.88 452.13 571.43 446.39 C 574.97 427.26 578.12 408.06 582.14 389.03 C 595.08 388.93 608.03 388.96 620.97 389.34 C 618.59 403.71 615.68 418.00 613.28 432.37 C 610.74 445.69 608.89 459.28 603.98 472.00 C 598.03 487.11 583.01 496.71 567.59 500.00 L 547.30 500.00 C 536.81 497.25 525.42 493.37 519.00 484.00 C 510.40 473.18 511.41 458.51 513.54 445.65 C 516.88 426.84 520.79 408.13 523.57 389.23 Z" />
<path fill="#000000" opacity="1.00" d=" M 655.76 388.93 C 668.56 388.98 681.36 388.97 694.17 388.97 C 701.05 407.25 708.22 425.46 713.57 444.26 C 717.18 426.01 720.08 407.63 723.51 389.34 C 736.61 388.88 749.73 388.76 762.84 389.27 C 759.55 411.59 754.61 433.63 750.79 455.86 C 748.48 469.61 745.99 483.35 742.97 496.97 C 729.72 497.05 716.47 497.06 703.23 496.90 C 696.86 479.18 690.57 461.43 684.26 443.68 C 681.54 461.50 678.40 479.25 674.86 496.92 C 661.62 497.04 648.38 497.03 635.15 497.04 C 642.32 461.06 647.58 424.69 655.76 388.93 Z" />
<path fill="#000000" opacity="1.00" d=" M 799.03 389.04 C 812.10 388.96 825.18 388.94 838.27 389.04 C 832.57 425.14 825.12 460.94 818.75 496.93 C 805.46 497.04 792.19 497.04 778.92 496.96 C 785.61 460.98 791.73 424.89 799.03 389.04 Z" />
<path fill="#000000" opacity="1.00" d=" M 857.87 389.04 C 870.77 388.96 883.68 388.83 896.59 389.24 C 898.80 408.26 901.75 427.22 902.48 446.39 C 909.34 426.71 918.60 408.02 927.08 389.02 C 941.20 388.88 955.33 388.92 969.45 389.44 C 967.24 394.70 964.34 399.63 961.61 404.63 C 944.71 435.41 928.20 466.41 911.05 497.05 C 899.41 497.01 887.78 497.04 876.16 496.94 C 869.78 461.02 863.89 425.02 857.87 389.04 Z" />
<path fill="#000000" opacity="1.00" d=" M 989.49 394.58 C 989.23 389.92 991.40 388.11 996.00 389.15 C 1018.71 388.59 1041.43 389.17 1064.15 389.03 C 1062.96 399.09 1061.06 409.04 1058.83 418.92 C 1047.24 418.99 1035.65 418.99 1024.08 419.06 C 1023.37 422.35 1022.70 425.65 1022.02 428.95 C 1033.02 429.01 1044.04 428.99 1055.07 429.04 C 1053.43 438.46 1051.94 447.95 1049.33 457.17 C 1038.78 457.04 1028.25 456.94 1017.73 456.33 C 1016.55 460.14 1015.64 464.03 1014.74 467.92 C 1027.55 468.02 1040.37 467.97 1053.19 468.04 C 1051.63 477.72 1049.66 487.32 1047.72 496.93 C 1022.08 497.07 996.45 497.02 970.82 496.97 C 976.56 462.76 983.13 428.68 989.49 394.58 Z" />
<path fill="#000000" opacity="1.00" d=" M 1099.04 389.04 C 1116.97 389.00 1134.98 388.51 1152.87 390.24 C 1162.62 391.24 1172.30 394.72 1179.75 401.25 C 1192.21 414.24 1189.74 437.04 1176.70 448.69 C 1172.01 452.07 1166.75 454.45 1161.29 456.26 C 1166.29 469.82 1171.57 483.28 1176.39 496.89 C 1163.08 497.06 1149.77 497.06 1136.48 496.87 C 1132.83 484.44 1128.85 472.12 1125.27 459.68 C 1122.29 471.99 1120.52 484.55 1117.86 496.93 C 1104.87 497.03 1091.88 497.06 1078.90 496.97 C 1085.71 461.01 1091.68 424.88 1099.04 389.04 M 1133.18 415.95 C 1131.70 423.04 1130.20 430.13 1128.84 437.25 C 1134.48 436.35 1141.76 437.87 1146.14 433.14 C 1149.17 429.35 1149.74 423.33 1146.53 419.46 C 1142.79 416.47 1137.63 416.81 1133.18 415.95 Z" />
<path fill="#000000" opacity="1.00" d=" M 1331.72 389.60 C 1344.81 388.31 1358.00 389.03 1371.16 389.05 C 1365.20 425.10 1357.82 460.90 1351.78 496.94 C 1338.44 497.04 1325.12 497.04 1311.81 496.96 C 1318.14 461.13 1324.48 425.26 1331.72 389.60 Z" />
<path fill="#000000" opacity="1.00" d=" M 1398.78 388.95 C 1426.79 389.20 1454.82 388.61 1482.84 389.27 C 1481.05 400.18 1479.19 411.08 1476.85 421.89 C 1469.55 421.95 1462.27 422.00 1455.02 422.06 C 1449.91 446.94 1446.14 472.08 1440.85 496.92 C 1427.63 497.04 1414.42 497.03 1401.23 497.04 C 1406.12 472.10 1410.05 446.97 1415.24 422.08 C 1407.48 422.03 1399.76 422.00 1392.04 421.96 C 1394.37 410.97 1396.17 399.88 1398.78 388.95 Z" />
<path fill="#000000" opacity="1.00" d=" M 1489.58 389.41 C 1503.40 388.96 1517.23 388.89 1531.08 388.99 C 1535.04 398.39 1537.91 408.18 1540.31 418.09 C 1544.95 407.89 1550.98 398.41 1557.20 389.10 C 1572.58 389.00 1588.01 388.62 1603.40 389.42 C 1588.95 409.52 1573.57 428.95 1558.60 448.65 C 1553.93 453.88 1553.83 461.16 1552.52 467.65 C 1550.92 477.46 1548.91 487.20 1546.82 496.92 C 1533.61 497.04 1520.42 497.03 1507.24 497.04 C 1509.54 485.93 1511.36 474.72 1513.55 463.58 C 1514.10 458.82 1515.66 453.72 1514.03 449.01 C 1506.41 428.93 1496.74 409.65 1489.58 389.41 Z" />
</g>
</svg>
